<mxfile host="app.diagrams.net" modified="2023-05-25T15:55:50.429Z" agent="Mozilla/5.0 (Windows NT 10.0; Win64; x64) AppleWebKit/537.36 (KHTML, like Gecko) Chrome/112.0.0.0 Safari/537.36 OPR/98.0.0.0" etag="vPCUtfqLWj3f_X1whvzW" version="21.3.3" type="github">
  <diagram name="Pagina-1" id="ZDK_hONH9NvYs_AdJ42P">
    <mxGraphModel dx="1050" dy="542" grid="1" gridSize="10" guides="1" tooltips="1" connect="1" arrows="1" fold="1" page="1" pageScale="1" pageWidth="827" pageHeight="1169" math="0" shadow="0">
      <root>
        <mxCell id="0" />
        <mxCell id="1" parent="0" />
        <mxCell id="87MTOX2J1gJNZBFF_QMD-1" value="" style="ellipse;whiteSpace=wrap;html=1;aspect=fixed;fillColor=#000000;" parent="1" vertex="1">
          <mxGeometry x="50" y="90" width="20" height="20" as="geometry" />
        </mxCell>
        <mxCell id="87MTOX2J1gJNZBFF_QMD-2" value="create/" style="endArrow=open;html=1;rounded=0;exitX=1;exitY=0.5;exitDx=0;exitDy=0;entryX=0;entryY=0.5;entryDx=0;entryDy=0;endFill=0;" parent="1" target="87MTOX2J1gJNZBFF_QMD-3" edge="1">
          <mxGeometry width="50" height="50" relative="1" as="geometry">
            <mxPoint x="70" y="100" as="sourcePoint" />
            <mxPoint x="220" y="105" as="targetPoint" />
          </mxGeometry>
        </mxCell>
        <mxCell id="87MTOX2J1gJNZBFF_QMD-3" value="utenteSbloccato" style="rounded=1;whiteSpace=wrap;html=1;fillColor=#d5e8d4;strokeColor=#82b366;" parent="1" vertex="1">
          <mxGeometry x="150" y="70" width="150" height="60" as="geometry" />
        </mxCell>
        <mxCell id="87MTOX2J1gJNZBFF_QMD-4" value="utenteBloccato" style="rounded=1;whiteSpace=wrap;html=1;fillColor=#d5e8d4;strokeColor=#82b366;" parent="1" vertex="1">
          <mxGeometry x="150" y="230" width="150" height="60" as="geometry" />
        </mxCell>
        <mxCell id="87MTOX2J1gJNZBFF_QMD-5" value="bloccoAssistenza/" style="endArrow=open;html=1;rounded=0;exitX=0.25;exitY=1;exitDx=0;exitDy=0;entryX=0.25;entryY=0;entryDx=0;entryDy=0;endFill=0;" parent="1" edge="1">
          <mxGeometry width="50" height="50" relative="1" as="geometry">
            <mxPoint x="174.5" y="130" as="sourcePoint" />
            <mxPoint x="174.5" y="230" as="targetPoint" />
          </mxGeometry>
        </mxCell>
        <mxCell id="87MTOX2J1gJNZBFF_QMD-6" value="sbloccoAssistenza/" style="endArrow=open;html=1;rounded=0;exitX=0.75;exitY=0;exitDx=0;exitDy=0;entryX=0.75;entryY=1;entryDx=0;entryDy=0;endFill=0;" parent="1" edge="1">
          <mxGeometry width="50" height="50" relative="1" as="geometry">
            <mxPoint x="266.5" y="230" as="sourcePoint" />
            <mxPoint x="266.5" y="130" as="targetPoint" />
          </mxGeometry>
        </mxCell>
      </root>
    </mxGraphModel>
  </diagram>
</mxfile>
